<?xml version="1.0"?>
<svg xmlns="http://www.w3.org/2000/svg" xmlns:xlink="http://www.w3.org/1999/xlink" xmlns:svgjs="http://svgjs.com/svgjs" version="1.1" width="512" height="512" x="0" y="0" viewBox="0 0 1024.287 1024.287" style="enable-background:new 0 0 512 512" xml:space="preserve" class=""><circle r="512.1435" cx="512.1435" cy="512.1435" fill="#00b570" shape="circle"/><g transform="matrix(0.7,0,0,0.7,153.64298858642582,168.64305267333987)">
<g xmlns="http://www.w3.org/2000/svg">
	<path d="M832.519,132.576c-176.76-176.776-464.39-176.76-641.151,0c-176.768,176.768-176.768,464.39,0,641.15   c98.879,98.895,239.293,146.613,377.948,129.074l156.507,115.594c5.234,3.869,11.527,5.893,17.899,5.893   c2.676,0,5.359-0.353,7.988-1.075c8.914-2.456,16.212-8.859,19.79-17.381l44.641-106.208c6.45-15.341-0.761-33.004-16.102-39.454   c-15.349-6.435-33.02,0.761-39.454,16.102l-29.787,70.874L595.212,847.009c-6.466-4.779-14.611-6.819-22.529-5.532   c-123.809,19.217-250.365-22.019-338.706-110.36c-153.267-153.266-153.267-402.658,0-555.933   c153.259-153.259,402.643-153.274,555.933,0c97.404,97.42,136.38,235.699,104.255,369.897c-0.078,0.33-0.157,0.659-0.22,0.989   c-4.504,18.558-10.382,36.881-17.31,54.065L806.24,767.637c-6.45,15.341,0.761,33.004,16.102,39.454   c15.341,6.442,33.012-0.761,39.454-16.102l70.56-167.901c8.239-20.418,15.05-41.683,19.939-61.983   c0.447-1.42,0.785-2.849,1.02-4.285C989.364,402.801,944.307,244.364,832.519,132.576z" fill="#ffffff" data-original="#000000" style="" class=""/>
	<path d="M702.911,312.009h-362.96c-13.316,0-24.106,10.684-24.106,24s10.79,24,24.106,24h362.96c13.316,0,24.106-10.684,24.106-24   S716.228,312.009,702.911,312.009z" fill="#ffffff" data-original="#000000" style="" class=""/>
	<path d="M727.017,474.009c0-13.316-10.79-24-24.106-24h-362.96c-13.316,0-24.106,10.684-24.106,24c0,13.316,10.79,24,24.106,24   h362.96C716.228,498.009,727.017,487.325,727.017,474.009z" fill="#ffffff" data-original="#000000" style="" class=""/>
	<path d="M339.951,588.009c-13.316,0-24.106,10.684-24.106,24c0,13.316,10.79,24,24.106,24H547.44c13.316,0,24.106-10.684,24.106-24   c0-13.316-10.79-24-24.106-24H339.951z" fill="#ffffff" data-original="#000000" style="" class=""/>
</g>
<g xmlns="http://www.w3.org/2000/svg">
</g>
<g xmlns="http://www.w3.org/2000/svg">
</g>
<g xmlns="http://www.w3.org/2000/svg">
</g>
<g xmlns="http://www.w3.org/2000/svg">
</g>
<g xmlns="http://www.w3.org/2000/svg">
</g>
<g xmlns="http://www.w3.org/2000/svg">
</g>
<g xmlns="http://www.w3.org/2000/svg">
</g>
<g xmlns="http://www.w3.org/2000/svg">
</g>
<g xmlns="http://www.w3.org/2000/svg">
</g>
<g xmlns="http://www.w3.org/2000/svg">
</g>
<g xmlns="http://www.w3.org/2000/svg">
</g>
<g xmlns="http://www.w3.org/2000/svg">
</g>
<g xmlns="http://www.w3.org/2000/svg">
</g>
<g xmlns="http://www.w3.org/2000/svg">
</g>
<g xmlns="http://www.w3.org/2000/svg">
</g>
</g></svg>
