<?xml version="1.0"?>
<svg xmlns="http://www.w3.org/2000/svg" xmlns:xlink="http://www.w3.org/1999/xlink" xmlns:svgjs="http://svgjs.com/svgjs" version="1.1" width="512" height="512" x="0" y="0" viewBox="0 0 411.86922 411" style="enable-background:new 0 0 512 512" xml:space="preserve" class=""><circle r="205.93461" cx="205.93461" cy="205.5" fill="#ffffff" shape="circle"/><g transform="matrix(0.79,0,0,0.7899999999999999,48.246820526123,69.07167968750005)"><path xmlns="http://www.w3.org/2000/svg" d="m137.753906 73.058594h-20c-2.199218 0-3.753906 2.125-3.753906 4.332031v23.667969h20v-23.667969c0-2.207031 1.550781-4.332031 3.753906-4.332031zm0 0" fill="#d4e1f4" data-original="#d4e1f4" style=""/><path xmlns="http://www.w3.org/2000/svg" d="m32 287.847656v-150.527344c-.007812-13.300781 10.699219-24.125 24-24.261718h-20c-13.300781.136718-24.007812 10.960937-24 24.261718v150.527344c0 13.289063 10.710938 24.09375 24 24.210938h20c-13.289062-.117188-24-10.921875-24-24.210938zm0 0" fill="#d4e1f4" data-original="#d4e1f4" style=""/><path xmlns="http://www.w3.org/2000/svg" d="m411.789062 37.847656c-.105468-20.695312-16.910156-37.414062-37.605468-37.414062-20.691406 0-37.496094 16.71875-37.605469 37.414062 0 18.675782 14.421875 34.210938 31.421875 37.09375v73.410156c-6.050781-2.535156-12.460938-4.105468-19-4.648437v-6.382813c-.074219-19.957031-16.203125-36.132812-36.15625-36.261718h-65.84375v-23.667969c0-8.824219-7.089844-16.332031-15.910156-16.332031h-51.089844v-23c0-3.316406-2.6875-6-6-6s-6 2.683594-6 6v23h-50.246094c-8.820312 0-15.753906 7.507812-15.753906 16.332031v23.667969h-66c-19.921875.144531-36 16.335937-36 36.261718v150.527344c.00390625 19.914063 16.085938 36.085938 36 36.210938h276.84375c19.941406-.109375 36.074219-16.265625 36.15625-36.210938v-6.382812c29.410156-2.625 53.890625-23.671875 60.898438-52.355469 7.007812-28.683594-5.011719-58.648437-29.898438-74.539063v-79.628906c18.257812-2.902344 31.71875-18.609375 31.789062-37.09375zm-297.789062 39.542969c0-2.207031 1.550781-4.332031 3.753906-4.332031h113.335938c2.25.167968 3.972656 2.074218 3.910156 4.332031v23.667969h-121zm223 210.457031c-.074219 13.320313-10.839844 24.109375-24.15625 24.210938h-276.84375c-13.289062-.117188-24-10.921875-24-24.210938v-150.527344c-.007812-13.300781 10.699219-24.125 24-24.261718h276.84375c13.328125.125 24.089844 10.929687 24.15625 24.261718zm63.15625-75.265625c.078125 29.273438-22.035156 53.847657-51.15625 56.847657v-113.691407c29.121094 3 51.234375 27.570313 51.15625 56.84375zm-51.3125-174.734375c0-14.128906 11.449219-25.578125 25.578125-25.578125 14.125 0 25.578125 11.449219 25.578125 25.578125 0 14.125-11.453125 25.578125-25.578125 25.578125-14.121094-.015625-25.5625-11.457031-25.578125-25.578125zm0 0" fill="#0635c9" data-original="#0635c9" style=""/><g xmlns="http://www.w3.org/2000/svg" fill="#1ae5be"><path d="m84 176.582031c-14.351562.015625-25.984375 11.648438-26 26v16.667969c-.046875 1.542969.539062 3.042969 1.628906 4.140625s2.578125 1.699219 4.125 1.667969h40c3.324219.105468 6.113282-2.488282 6.246094-5.808594v-16.667969c-.015625-14.351562-11.648438-25.984375-26-26zm14 36.476563h-28v-10.476563c0-7.730469 6.269531-14 14-14s14 6.269531 14 14zm0 0" fill="#1ae5be" data-original="#1ae5be" style=""/><path d="m239 202.582031v16.667969c.027344 1.578125.6875 3.082031 1.832031 4.175781 1.144531 1.089844 2.675781 1.675781 4.257813 1.632813h40c1.558594.039062 3.070312-.558594 4.183594-1.652344 1.117187-1.09375 1.738281-2.59375 1.726562-4.15625v-16.667969c0-14.359375-11.640625-26-26-26s-26 11.640625-26 26zm40 0v10.476563h-28v-10.476563c0-7.730469 6.269531-14 14-14s14 6.269531 14 14zm0 0" fill="#1ae5be" data-original="#1ae5be" style=""/><path d="m220.421875 251.117188c.003906-3.324219-2.675781-6.03125-6-6.058594h-80c-3.328125.027344-6.007813 2.734375-6 6.058594 0 25.40625 20.59375 46 46 46 25.402344 0 46-20.59375 46-46zm-46 33.941406c-16.472656.015625-30.582031-11.785156-33.472656-28h66.941406c-2.890625 16.214844-17 28.015625-33.46875 28zm0 0" fill="#1ae5be" data-original="#1ae5be" style=""/></g></g></svg>
